<svg xmlns="http://www.w3.org/2000/svg" xmlns:xlink="http://www.w3.org/1999/xlink" width="127" height="127" viewBox="0 0 127 127">
    <defs>
        <circle id="a" cx="63.5" cy="63.5" r="63.5"/>
    </defs>
    <g fill="none" fill-rule="evenodd">
        <use fill="#F7F7F7" xlink:href="#a"/>
        <g transform="translate(23 10)">
            <circle cx="41" cy="57" r="41" fill="#FDD200"/>
            <ellipse cx="42" cy="53" fill="#FFF" rx="33" ry="28"/>
            <ellipse cx="25" cy="46.5" fill="#886313" rx="3" ry="3.5"/>
            <ellipse cx="57" cy="46.5" fill="#886313" rx="3" ry="3.5"/>
            <g transform="rotate(17 23.118 173.088)">
                <path fill="#ED9C1D" d="M.226 18.177c.424-1.167 2.275-1.119 4.96-1.48 2.683-.362 4.38-1.228 6.337-.614 1.956.614 1.952 3.026 0 3.668-1.952.642-4.907.886-7.456.642-2.548-.244-4.264-1.048-3.84-2.216z"/>
                <rect width="2.344" height="9.333" x="6.25" y="8.556" fill="#886313" rx="1.172"/>
                <path fill="#75C440" d="M7.552 14.156c.3-3.713 2.04-6.504 5.222-8.373 3.182-1.87 6.408-2.211 9.678-1.026-.15 3.942-1.982 6.845-5.493 8.71-3.511 1.864-6.647 2.093-9.407.689z"/>
                <path fill="#A9DD60" d="M7.435 14.042c.41-3.605 2.183-6.365 5.319-8.279 3.135-1.914 6.263-2.35 9.383-1.31-1.736.27-4.33 1.365-7.784 3.285-3.454 1.92-5.76 4.022-6.918 6.304z"/>
            </g>
            <ellipse cx="20.5" cy="52.5" fill="#FCE1D8" rx="7.5" ry="1.5"/>
            <ellipse cx="61.5" cy="52.5" fill="#FCE1D8" rx="7.5" ry="1.5"/>
            <g stroke="#886313" stroke-linecap="round" stroke-width="2.005">
                <path d="M36.766 54.972c.359.832 1.302 1.371 2.343 1.262.834-.088 1.52-.57 1.852-1.216"/>
                <path d="M40.933 54.972c.359.832 1.302 1.371 2.343 1.262.834-.088 1.52-.57 1.852-1.216"/>
            </g>
        </g>
    </g>
</svg>
