<svg xmlns="http://www.w3.org/2000/svg" xmlns:xlink="http://www.w3.org/1999/xlink" width="50" height="50" viewBox="0 0 50 50">
    <defs>
        <circle id="a" cx="20" cy="20" r="20"/>
    </defs>
    <g fill="none" fill-rule="evenodd" transform="translate(5 5)">
        <mask id="b" fill="#fff">
            <use xlink:href="#a"/>
        </mask>
        <use fill="#F5A623" xlink:href="#a"/>
        <path fill="#FFF" d="M13 17.12c1.573-.347 2.633-.64 3.18-.88.547-.24.987-.36 1.32-.36.333 0 .993.287 1.98.86s1.48 1 1.48 1.28-.093.5-.28.66c-.187.16-.413.54-.68 1.14-.267.6-.48 1.18-.64 1.74-1.013 3.387-1.867 5.08-2.56 5.08-.187 0-.4-.133-.64-.4a1.773 1.773 0 0 0-.56-.08c-.56 0-2.6.307-6.12.92-.053.507-.2.76-.44.76-.187 0-.393-.16-.62-.48a3.288 3.288 0 0 1-.5-1.16c-.773-3.733-1.64-6.067-2.6-7-.187-.16-.28-.32-.28-.48 0-.293.32-.44.96-.44h.56c.987-.08 2.547-.333 4.68-.76 2.347-2.88 3.52-4.56 3.52-5.04 0-.133-.06-.2-.18-.2s-.307.033-.56.1c-.253.067-.6.1-1.04.1-.44 0-1.033-.133-1.78-.4-.827.987-1.72 1.84-2.68 2.56-.96.72-1.6 1.08-1.92 1.08-.133 0-.2-.08-.2-.24 0-.16.173-.413.52-.76 1.093-1.12 2.147-2.533 3.16-4.24 1.013-1.707 1.52-2.933 1.52-3.68 0-.187-.027-.347-.08-.48a1.07 1.07 0 0 1-.08-.4c0-.373.213-.56.64-.56.427 0 .987.213 1.68.64.693.427 1.04.807 1.04 1.14 0 .333-.133.627-.4.88s-.613.68-1.04 1.28c-.427.6-.96 1.3-1.6 2.1 1.093.133 2.2-.16 3.32-.88.613-.4 1.093-.6 1.44-.6s.893.227 1.64.68c.747.453 1.12.833 1.12 1.14 0 .307-.347.593-1.04.86-1.173.48-2.92 1.987-5.24 4.52zm.16 8.32c1.2-.213 2.047-.32 2.54-.32.493 0 .813-.14.96-.42.147-.28.327-1.133.54-2.56.213-1.427.32-2.673.32-3.74 0-.613-.267-.92-.8-.92s-1.827.24-3.88.72c.533.187.76 1.067.68 2.64.773-.16 1.327-.24 1.66-.24.333 0 .613.053.84.16.227.107.34.273.34.5 0 .227-.293.427-.88.6s-1.267.34-2.04.5l-.28 3.08zm-1.08-2.84c-.587.053-1.067.08-1.44.08-.72 0-1.08-.16-1.08-.48 0-.213.147-.36.44-.44l2.08-.56c-.027-1.467-.227-2.373-.6-2.72-1.413.267-2.653.44-3.72.52.427 1.093.987 3.493 1.68 7.2 1.52-.32 2.373-.493 2.56-.52.053-1.573.08-2.6.08-3.08zm22.2-14.76c0 .213-.187.427-.56.64-.373.213-1.88 1.667-4.52 4.36-.267.267-.473.4-.62.4-.147 0-.22-.073-.22-.22 0-.147.093-.34.28-.58.613-.907 1.127-1.947 1.54-3.12.413-1.173.58-2.027.5-2.56a1.854 1.854 0 0 1-.04-.36c0-.427.193-.64.58-.64.387 0 .993.26 1.82.78.827.52 1.24.953 1.24 1.3zm-12.48 1c.24 0 .76.22 1.56.66.8.44 1.313.927 1.54 1.46.227.533.34.947.34 1.24 0 .293-.08.56-.24.8-.16.24-.347.36-.56.36-.56 0-1.193-.6-1.9-1.8-.707-1.2-1.06-1.953-1.06-2.26 0-.307.107-.46.32-.46zm6.56 16.8c3.973-.747 6.093-1.153 6.36-1.22.267-.067.653-.1 1.16-.1.507 0 1.107.167 1.8.5.693.333 1.04.66 1.04.98 0 .32-.147.56-.44.72-.293.16-.707.24-1.24.24l-2.44-.04c-2 0-4.08.147-6.24.44.053 4.907-.087 8.507-.42 10.8-.333 2.293-.713 3.44-1.14 3.44-.213 0-.407-.253-.58-.76s-.26-1.56-.26-3.16l.32-10.04c-1.44.213-2.64.44-3.6.68-.96.24-1.713.36-2.26.36-.547 0-1.087-.16-1.62-.48-.533-.32-.8-.567-.8-.74 0-.173.4-.3 1.2-.38 1.947-.187 4.307-.493 7.08-.92 0-2.16-.013-3.56-.04-4.2-1.12.16-1.96.24-2.52.24s-1.047-.087-1.46-.26c-.413-.173-.62-.34-.62-.5 0-.16.213-.267.64-.32 1.04-.08 2.347-.267 3.92-.56-.053-2.133-.267-3.467-.64-4-.96.16-1.74.24-2.34.24-.6 0-1.067-.06-1.4-.18-.333-.12-.5-.273-.5-.46s.147-.293.44-.32c.853-.08 2.113-.32 3.78-.72 1.667-.4 3.04-.787 4.12-1.16 1.08-.373 1.86-.56 2.34-.56.48 0 .933.067 1.36.2.427.133.64.313.64.54 0 .227-.08.393-.24.5-.16.107-.787.293-1.88.56l-4.72 1.08c.88.293 1.32.707 1.32 1.24 0 .187-.04.387-.12.6-.08.213-.12.827-.12 1.84 1.707-.453 2.84-.68 3.4-.68s.993.107 1.3.32c.307.213.46.4.46.56 0 .16-.08.3-.24.42-.16.12-.767.287-1.82.5-1.053.213-2.073.4-3.06.56l.08 4.2zm-10.6 2.72c.4 0 .6.093.6.28 0 .187-.413.467-1.24.84-5.493 2.427-8.56 3.853-9.2 4.28-.373.24-.7.36-.98.36s-.793-.28-1.54-.84c-.747-.56-1.12-1.013-1.12-1.36 0-.347.267-.52.8-.52a15.99 15.99 0 0 0 3.32-.44c1.12-.267 3.48-.973 7.08-2.12 1.04-.32 1.8-.48 2.28-.48z" mask="url(#b)"/>
    </g>
</svg>
