<svg xmlns="http://www.w3.org/2000/svg" width="50" height="50" viewBox="0 0 50 50">
    <g fill="#666" fill-rule="nonzero">
        <path d="M35.45 15.984c0-6.06-4.891-10.972-10.925-10.972-6.034 0-10.925 4.913-10.925 10.972 0 6.06 4.891 10.972 10.925 10.972 6.034 0 10.925-4.912 10.925-10.972zm-19.95 0c0-5.006 4.04-9.064 9.025-9.064 4.984 0 9.025 4.058 9.025 9.064s-4.04 9.064-9.025 9.064c-4.984 0-9.025-4.058-9.025-9.064z"/>
        <path d="M6 41.267v.954h38v-.954c0-8.566-8.792-16.22-19-16.22-.614 0-1.225.025-1.831.075-.523.043.839.503.881 1.028.555-.045.387.806.95.806 9.215 0 17.1 6.864 17.1 14.31l.95-.953H6.95l.95.954c0-5.067 3.185-9.699 8.315-12.278a.956.956 0 0 0 .424-1.28.948.948 0 0 0-1.275-.426C9.621 30.17 6 35.437 6 41.267z"/>
    </g>
</svg>
