<svg xmlns="http://www.w3.org/2000/svg" width="50" height="50" viewBox="0 0 50 50">
    <g fill="#666" fill-rule="nonzero">
        <path d="M14.09 32.482C14.563 33.905 16.064 35 17.542 35h21.393l.201-.71 4.753-16.773c.473-1.672-.613-3.148-2.312-3.148H21.385a.972.972 0 0 0-.961.982c0 .543.43.983.961.983h20.192c.419 0 .582.221.464.636L37.29 33.744l.924-.709h-20.67c-.656 0-1.424-.56-1.632-1.185L7.872 7.667a.957.957 0 0 0-1.22-.615.988.988 0 0 0-.6 1.247l8.038 24.183zM20 41a4 4 0 1 0-8 0 4 4 0 0 0 8 0zm-6 0a2 2 0 1 1 4 0 2 2 0 0 1-4 0zM42 41a4 4 0 1 0-8 0 4 4 0 0 0 8 0zm-6 0a2 2 0 1 1 4 0 2 2 0 0 1-4 0z"/>
    </g>
</svg>
