<svg xmlns="http://www.w3.org/2000/svg" width="50" height="50" viewBox="0 0 50 50">
    <g fill="#666" fill-rule="nonzero">
        <path d="M11.621 7.831h7.387a2.755 2.755 0 0 1 2.763 2.754v8.227a2.758 2.758 0 0 1-2.763 2.753H11.62a2.755 2.755 0 0 1-2.764-2.753v-8.227a2.758 2.758 0 0 1 2.764-2.754zm-4.609 10.98c0 2.537 2.061 4.585 4.609 4.585h7.387c2.546 0 4.608-2.053 4.608-4.584v-8.227c0-2.536-2.06-4.585-4.608-4.585H11.62c-2.546 0-4.609 2.053-4.609 4.585v8.227zM30.992 7.831h7.387a2.755 2.755 0 0 1 2.764 2.754v8.227a2.758 2.758 0 0 1-2.764 2.753h-7.387a2.755 2.755 0 0 1-2.763-2.753v-8.227a2.758 2.758 0 0 1 2.763-2.754zm-4.608 10.98c0 2.537 2.06 4.585 4.608 4.585h7.387c2.546 0 4.609-2.053 4.609-4.584v-8.227C42.988 8.049 40.927 6 38.379 6h-7.387c-2.546 0-4.608 2.053-4.608 4.585v8.227zM11.621 27.974h7.387a2.755 2.755 0 0 1 2.763 2.754v8.227a2.758 2.758 0 0 1-2.763 2.754H11.62a2.755 2.755 0 0 1-2.764-2.754v-8.227a2.758 2.758 0 0 1 2.764-2.754zM7.012 38.955c0 2.536 2.061 4.585 4.609 4.585h7.387c2.546 0 4.608-2.053 4.608-4.585v-8.227c0-2.536-2.06-4.585-4.608-4.585H11.62c-2.546 0-4.609 2.053-4.609 4.585v8.227zM38.296 41.709H30.99a2.753 2.753 0 0 1-2.761-2.754v-8.227a2.758 2.758 0 0 1 2.763-2.754h7.387a2.753 2.753 0 0 1 2.764 2.75v8.236c0 .505.413.915.922.915.51 0 .923-.41.923-.915v-8.236c0-2.534-2.061-4.58-4.609-4.58h-7.387c-2.546 0-4.608 2.052-4.608 4.584v8.227c0 2.536 2.06 4.585 4.606 4.585H38.358c.53 0 .943-.41.943-.916a.919.919 0 0 0-.922-.915h-.083z"/>
    </g>
</svg>
