<svg xmlns="http://www.w3.org/2000/svg" width="60" height="60" viewBox="0 0 60 60">
    <g fill="#333" fill-rule="nonzero">
        <path d="M41.025 34.765l-.223.447.28.415 2.746 4.074.112-1.093-4.886 4.765 1.037-.123-4.484-2.672-.372-.221-.398.167c-.283.118-.572.227-.863.324l-.465.155-.102.48-.981 4.625.838-.68h-6.91l.831.652-1.198-4.841-.107-.432-.415-.161c-.259-.1-.515-.21-.767-.329l-.428-.2-.398.255-4.212 2.7 1.06.107-4.885-4.764.127 1.069 2.74-4.372.243-.387-.186-.417a11.72 11.72 0 0 1-.351-.885l-.162-.46-.477-.096-4.742-.956.687.84v-6.738l-.66.835 4.965-1.17.43-.1.168-.41c.12-.294.253-.585.398-.87l.226-.446-.277-.416-2.58-3.889-.112 1.083 4.858-4.808-1.047.124 4.316 2.611.373.226.401-.168c.233-.097.47-.188.708-.27l.439-.153.111-.451 1.159-4.678-.832.651h6.91l-.839-.679 1.014 4.779.098.46.441.165c.359.134.71.284 1.054.45l.428.206.402-.253 3.988-2.515-1.05-.106 4.935 4.735-.13-1.079-2.681 4.21-.246.386.184.42c.126.287.242.582.344.88l.155.446.46.108 4.722 1.111-.661-.834v6.738l.687-.84-4.985 1.005-.448.09-.175.422c-.104.251-.217.5-.34.746zm1.132-.418l.17.84 4.985-1.005.688-.139v-8.118l-.66-.156-4.723-1.11-.196.834.81-.28c-.118-.342-.25-.68-.395-1.01l-.785.345.723.46 2.681-4.21.377-.592-.507-.487-4.934-4.735-.484-.464-.567.357-3.988 2.515.457.725.372-.772c-.39-.189-.792-.36-1.2-.512l-.3.803.84-.178-1.015-4.779-.144-.679h-8.275l-.161.651-1.159 4.678.832.206-.281-.81c-.272.095-.54.198-.805.308l.33.791.444-.733-4.317-2.612-.572-.346-.474.47-4.858 4.81-.5.495.39.587 2.58 3.889.714-.474-.764-.388c-.166.326-.318.66-.456.998l.793.324-.196-.834-4.966 1.169-.661.155v8.118l.688.14 4.742.956.169-.84-.809.283c.12.343.255.682.403 1.014l.783-.348-.726-.455-2.74 4.372-.367.586.495.483 4.886 4.764.487.475.574-.367 4.212-2.7-.462-.721-.364.776c.287.134.579.259.873.373l.31-.798-.831.206 1.198 4.84.162.652H33.958l.145-.68.981-4.624-.838-.178.271.813c.331-.11.66-.234.982-.37l-.331-.79-.439.737 4.485 2.672.565.337.472-.46 4.886-4.764.512-.5-.4-.593-2.746-4.075-.71.48.766.382c.14-.281.27-.567.39-.855l-.792-.328z"/>
        <path d="M37.714 29.571a7.286 7.286 0 1 0-4.33 6.662.857.857 0 0 0-.696-1.567 5.571 5.571 0 1 1 3.183-3.898.857.857 0 0 0 1.675.366 7.31 7.31 0 0 0 .168-1.563z"/>
    </g>
</svg>
