<svg xmlns="http://www.w3.org/2000/svg" width="60" height="60" viewBox="0 0 60 60">
    <g fill="#333" fill-rule="nonzero">
        <path d="M16.864 11.928h7.776a2.9 2.9 0 0 1 2.909 2.898v8.66a2.904 2.904 0 0 1-2.91 2.898h-7.775a2.9 2.9 0 0 1-2.91-2.898v-8.66a2.904 2.904 0 0 1 2.91-2.898zm-4.851 11.558c0 2.67 2.17 4.826 4.851 4.826h7.776c2.68 0 4.85-2.161 4.85-4.826v-8.66c0-2.67-2.168-4.826-4.85-4.826h-7.776c-2.68 0-4.851 2.161-4.851 4.826v8.66zM37.255 11.928h7.776a2.9 2.9 0 0 1 2.909 2.898v8.66a2.904 2.904 0 0 1-2.91 2.898h-7.775a2.9 2.9 0 0 1-2.91-2.898v-8.66a2.904 2.904 0 0 1 2.91-2.898zm-4.851 11.558c0 2.67 2.17 4.826 4.851 4.826h7.776c2.68 0 4.85-2.161 4.85-4.826v-8.66c0-2.67-2.168-4.826-4.85-4.826h-7.776c-2.68 0-4.851 2.161-4.851 4.826v8.66zM16.864 33.131h7.776a2.9 2.9 0 0 1 2.909 2.898v8.66a2.904 2.904 0 0 1-2.91 2.899h-7.775a2.9 2.9 0 0 1-2.91-2.898v-8.66a2.904 2.904 0 0 1 2.91-2.899zM12.013 44.69c0 2.669 2.17 4.825 4.851 4.825h7.776c2.68 0 4.85-2.16 4.85-4.825v-8.66c0-2.67-2.168-4.827-4.85-4.827h-7.776c-2.68 0-4.851 2.162-4.851 4.826v8.66zM44.943 47.588H37.252a2.898 2.898 0 0 1-2.906-2.898v-8.66a2.904 2.904 0 0 1 2.91-2.899h7.775a2.898 2.898 0 0 1 2.909 2.894v8.67c0 .532.435.963.97.963a.967.967 0 0 0 .972-.964v-8.669c0-2.667-2.17-4.822-4.851-4.822h-7.776c-2.68 0-4.851 2.162-4.851 4.826v8.66c0 2.67 2.168 4.826 4.849 4.826h7.755c.559 0 .994-.431.994-.963a.967.967 0 0 0-.971-.964h-.088z"/>
    </g>
</svg>
