<svg xmlns="http://www.w3.org/2000/svg" width="60" height="60" viewBox="0 0 60 60">
    <g fill="none" fill-rule="evenodd" transform="translate(-226 -1018)">
        <path fill="#333" fill-rule="nonzero" d="M273.368 1030.125h-34.736c-2.555 0-4.632 2.067-4.632 4.608v23.04c0 2.542 2.077 4.609 4.632 4.609h4.62c.64 0 1.158-.516 1.158-1.152 0-.637-.518-1.152-1.158-1.152h-4.62a2.313 2.313 0 0 1-2.316-2.304v-23.041c0-1.27 1.04-2.304 2.316-2.304h34.736a2.313 2.313 0 0 1 2.316 2.304v23.04c0 1.27-1.039 2.305-2.316 2.305h-19.68a1.16 1.16 0 0 0-.82.337l-10.423 10.369a1.147 1.147 0 0 0 0 1.629 1.158 1.158 0 0 0 1.637 0l10.085-10.031h19.201c2.555 0 4.632-2.067 4.632-4.608v-23.041c0-2.541-2.077-4.608-4.632-4.608zm-29.14 15.027c-1.328 0-2.404 1.12-2.404 2.504 0 1.383 1.076 2.504 2.403 2.504 1.328 0 2.404-1.12 2.404-2.504 0-1.383-1.076-2.504-2.404-2.504zm10.816 5.008c1.328 0 2.404-1.12 2.404-2.504 0-1.383-1.076-2.504-2.404-2.504-1.327 0-2.404 1.12-2.404 2.504 0 1.383 1.077 2.504 2.404 2.504zm13.22-2.504c0-1.383-1.076-2.504-2.403-2.504-1.328 0-2.404 1.12-2.404 2.504 0 1.383 1.076 2.504 2.404 2.504 1.327 0 2.403-1.121 2.403-2.504z"/>
        <circle cx="276" cy="1032" r="8" fill="#FF4847"/>
    </g>
</svg>
